<svg xmlns="http://www.w3.org/2000/svg" viewBox="0 0 512 512" width="512" height="512">
  <!-- Thought bubble -->
  <circle cx="390" cy="110" r="48" fill="#FFFFFF" stroke="#ED6B23" stroke-width="8"/>
  <circle cx="360" cy="155" r="14" fill="#FFFFFF" stroke="#ED6B23" stroke-width="6"/>
  <circle cx="340" cy="180" r="9" fill="#FFFFFF" stroke="#ED6B23" stroke-width="5"/>
  <text x="390" y="120" font-family="Arial, sans-serif" font-size="42" text-anchor="middle">🤔</text>

  <!-- Ghali head — orange outline layer -->
  <g fill="#ED6B23" stroke="#ED6B23" stroke-linejoin="round" stroke-linecap="round">
    <line x1="130" y1="152" x2="85" y2="107" stroke-width="25"/>
    <circle cx="80" cy="102" r="18" stroke-width="10"/>
    <line x1="360" y1="152" x2="400" y2="107" stroke-width="25"/>
    <circle cx="405" cy="102" r="18" stroke-width="10"/>
    <path d="M 52 237 C 5 242, 5 332, 52 337 Q 35 287 52 237 Z" stroke-width="10"/>
    <path d="M 438 237 C 485 242, 485 332, 438 337 Q 455 287 438 237 Z" stroke-width="10"/>
    <path d="M 245 102 C 375 102, 435 172, 435 277 C 435 382, 375 437, 245 437 C 115 437, 55 382, 55 277 C 55 172, 115 102, 245 102 Z" stroke-width="10"/>
  </g>

  <!-- White fill layer -->
  <g fill="#FFFFFF">
    <line x1="130" y1="152" x2="85" y2="107" stroke="#FFFFFF" stroke-width="15" stroke-linecap="round"/>
    <circle cx="80" cy="102" r="18"/>
    <line x1="360" y1="152" x2="400" y2="107" stroke="#FFFFFF" stroke-width="15" stroke-linecap="round"/>
    <circle cx="405" cy="102" r="18"/>
    <path d="M 52 237 C 5 242, 5 332, 52 337 Q 35 287 52 237 Z"/>
    <path d="M 438 237 C 485 242, 485 332, 438 337 Q 455 287 438 237 Z"/>
    <path d="M 245 102 C 375 102, 435 172, 435 277 C 435 382, 375 437, 245 437 C 115 437, 55 382, 55 277 C 55 172, 115 102, 245 102 Z"/>
  </g>

  <!-- Face details -->
  <path d="M 245 182 C 335 182, 395 212, 395 287 C 395 362, 335 412, 245 412 C 155 412, 95 362, 95 287 C 95 212, 155 182, 245 182 Z" fill="none" stroke="#ED6B23" stroke-width="14"/>

  <!-- Squinted thinking eyes -->
  <path d="M 148 275 Q 170 265, 195 275" fill="none" stroke="#ED6B23" stroke-width="11" stroke-linecap="round"/>
  <path d="M 296 275 Q 318 265, 343 275" fill="none" stroke="#ED6B23" stroke-width="11" stroke-linecap="round"/>

  <!-- Sideways mouth (thinking) -->
  <path d="M 215 330 Q 245 325, 270 335" fill="none" stroke="#ED6B23" stroke-width="11" stroke-linecap="round"/>
</svg>
