<svg xmlns="http://www.w3.org/2000/svg" viewBox="0 0 512 512" width="512" height="512">
  <!-- Background transparent -->

  <!-- Waving arm (right side) -->
  <g fill="#ED6B23" stroke="#ED6B23" stroke-linejoin="round" stroke-linecap="round">
    <line x1="380" y1="290" x2="460" y2="230" stroke-width="22"/>
    <circle cx="470" cy="222" r="22" stroke-width="8"/>
    <!-- Motion lines -->
    <line x1="490" y1="200" x2="510" y2="185" stroke-width="8" stroke-linecap="round"/>
    <line x1="498" y1="215" x2="512" y2="208" stroke-width="8" stroke-linecap="round"/>
    <line x1="486" y1="230" x2="505" y2="228" stroke-width="8" stroke-linecap="round"/>
  </g>

  <!-- Ghali head — orange outline layer -->
  <g fill="#ED6B23" stroke="#ED6B23" stroke-linejoin="round" stroke-linecap="round">
    <line x1="140" y1="142" x2="95" y2="97" stroke-width="25"/>
    <circle cx="90" cy="92" r="18" stroke-width="10"/>
    <line x1="370" y1="142" x2="415" y2="97" stroke-width="25"/>
    <circle cx="420" cy="92" r="18" stroke-width="10"/>
    <path d="M 62 227 C 15 232, 15 322, 62 327 Q 45 277 62 227 Z" stroke-width="10"/>
    <path d="M 450 227 C 497 232, 497 322, 450 327 Q 467 277 450 227 Z" stroke-width="10"/>
    <path d="M 256 92 C 386 92, 446 162, 446 267 C 446 372, 386 427, 256 427 C 126 427, 66 372, 66 267 C 66 162, 126 92, 256 92 Z" stroke-width="10"/>
  </g>

  <!-- White fill layer -->
  <g fill="#FFFFFF">
    <line x1="140" y1="142" x2="95" y2="97" stroke="#FFFFFF" stroke-width="15" stroke-linecap="round"/>
    <circle cx="90" cy="92" r="18"/>
    <line x1="370" y1="142" x2="415" y2="97" stroke="#FFFFFF" stroke-width="15" stroke-linecap="round"/>
    <circle cx="420" cy="92" r="18"/>
    <path d="M 62 227 C 15 232, 15 322, 62 327 Q 45 277 62 227 Z"/>
    <path d="M 450 227 C 497 232, 497 322, 450 327 Q 467 277 450 227 Z"/>
    <path d="M 256 92 C 386 92, 446 162, 446 267 C 446 372, 386 427, 256 427 C 126 427, 66 372, 66 267 C 66 162, 126 92, 256 92 Z"/>
  </g>

  <!-- Face details -->
  <path d="M 256 172 C 346 172, 406 202, 406 277 C 406 352, 346 402, 256 402 C 166 402, 106 352, 106 277 C 106 202, 166 172, 256 172 Z" fill="none" stroke="#ED6B23" stroke-width="14"/>

  <!-- Happy eyes (wider, upward arc) -->
  <path d="M 148 262 Q 178 238, 208 262" fill="none" stroke="#ED6B23" stroke-width="13" stroke-linecap="round"/>
  <path d="M 306 262 Q 336 238, 366 262" fill="none" stroke="#ED6B23" stroke-width="13" stroke-linecap="round"/>

  <!-- Big smile -->
  <path d="M 196 307 Q 256 365, 316 307" fill="none" stroke="#ED6B23" stroke-width="14" stroke-linecap="round"/>

  <!-- Hi text -->
  <text x="256" y="485" font-family="Arial, sans-serif" font-size="38" font-weight="bold" fill="#ED6B23" text-anchor="middle">Hi! 👋</text>
</svg>
